<svg xmlns="http://www.w3.org/2000/svg" version="1.1" xmlns:xlink="http://www.w3.org/1999/xlink" viewBox="0 0 16.53159600517722 5.697036301430197"><g transform="matrix(0.7546320837118369,0,0,0.7546320837118369,2.727096595504003,2.2277684897795793)"><g transform="matrix(1,0,0,1,0,0)" clip-path="url(#SvgjsClipPath41202)"><g clip-path="url(#SvgjsClipPath412005b396258-64d5-432f-946b-f6ff0af23960)"><path d=" M 7.949783405893179 -0.9022438891841782 C 7.951319428934143 -0.8699065620059839 7.967083875933513 -0.8380273469628141 7.956708983463843 -0.8052319076495953 C 7.94797790512573 -0.7839431672572841 7.917365235397039 -0.7699842210253636 7.917877243077362 -0.7483182118159735 C 7.919736639390107 -0.6898415451687389 7.917877243077362 -0.632442789427444 7.865086556458959 -0.655348396178665 C 7.843312756158975 -0.6656424453303902 7.834069670140542 -0.6614116450245764 7.819410081819759 -0.6623817648399222 C 7.794564235437847 -0.6627590336570011 7.785105567238225 -0.6825656465536452 7.7778835641684285 -0.7075731795714488 C 7.765002528842448 -0.7522525866226539 7.746812782304714 -0.7884164975169343 7.68313519553632 -0.7945066941354944 C 7.684213106442259 -0.7935904698654455 7.685291017348199 -0.7926742455953966 7.6862611371635445 -0.7918119168706448 C 7.685614390619981 -0.7657264729469013 7.664702919044749 -0.7364342440779871 7.6382402063039265 -0.7077079184346913 L 7.7080618852361775 -0.5604113931380164 C 7.718840994295576 -0.5334636204895211 7.705555742379867 -0.4861163839461151 7.64193205115677 -0.4558809830345034 C 7.6256286487044305 -0.4424070967102558 7.612828456696395 -0.4196631765949257 7.5902731709896045 -0.412764546796911 L 7.579763539656692 -0.506300265659838 C 7.596848427515837 -0.5134144776390407 7.617490421364585 -0.5023928386258062 7.632742860683633 -0.5164326281756721 C 7.63907558725603 -0.5249211765599482 7.6317188453229905 -0.5329246650365512 7.639587594936351 -0.5414671089661242 C 7.657992923655273 -0.5615970951345501 7.595689673291952 -0.5832092087986434 7.579709644111395 -0.6176484622434202 C 7.588279035813616 -0.6400959568596167 7.60326199740618 -0.664322004470614 7.617679055773125 -0.6866078124509194 C 7.587443654861513 -0.6643489522432624 7.552169020464633 -0.6261909061729931 7.534895498196947 -0.6037434115567968 C 7.508298046592882 -0.5732385329187001 7.485203805433122 -0.5327360306280119 7.475610398370258 -0.47673855906443874 C 7.472565300060978 -0.45862965584465 7.475367868416422 -0.4372600721343932 7.475610398370258 -0.415755749560894 C 7.475610398370258 -0.40026078028800927 7.45944173478116 -0.3922842395840548 7.47431690528313 -0.3679773486551119 C 7.485850551976686 -0.35024571425240214 7.507058449051052 -0.33499327493335385 7.511450935992756 -0.3117912426829994 L 7.41737626167686 -0.3117912426829994 C 7.412229237100997 -0.32957677263100627 7.424194048156929 -0.3507307741600749 7.41198670714716 -0.36746534097479067 C 7.386143793177253 -0.3917183363584362 7.394767080424772 -0.4431077387991167 7.400776433725387 -0.4914250951578686 C 7.411339960603597 -0.57682258668095 7.447827244769659 -0.654701649635101 7.415112648774386 -0.731260271729476 C 7.4092110865643654 -0.5614893040439561 7.265768092756425 -0.6192922763749784 7.1596208162940025 -0.6130673408931759 C 7.061045863945807 -0.6073274653190465 7.040376922324411 -0.5128755221860707 7.0579468700912305 -0.47886743310366975 C 7.068240919242955 -0.45515339317299397 7.079505088210026 -0.4393619984009757 7.087589420004575 -0.4175612503283431 C 7.0928442356710315 -0.40335977414258617 7.085244963784156 -0.38452328106128797 7.098099051337488 -0.36334233175957065 C 7.109632698031044 -0.3456106973568609 7.13030163965244 -0.3350202227060022 7.134694126594145 -0.31181819045564796 L 7.040646400050896 -0.31181819045564796 C 7.035472427702385 -0.3296037204036548 7.0474641865309655 -0.35075772193272337 7.0352568455211975 -0.367492288747439 C 6.991224185013556 -0.4087493286722852 6.990631334015289 -0.4641808970102399 6.963198501459121 -0.5137378509108227 C 7.002407510662682 -0.5703281734726626 7.087373837823387 -0.601479798654323 7.076729467627231 -0.6856107448629252 C 7.066839635065234 -0.6153040060230011 6.987801817887197 -0.5892455098719063 6.943257149699234 -0.5410628923763968 C 6.908440627437379 -0.5044947648923889 6.909276008389482 -0.47099868349030927 6.905826693490475 -0.4319783086952882 C 6.904209827131565 -0.4136268755216629 6.880819160472671 -0.3929040383549701 6.8934846136174635 -0.37164224573530735 C 6.90625785785285 -0.35156615511217837 6.926819008383652 -0.34264644236552644 6.93204687627746 -0.31181819045564807 L 6.831262206572088 -0.31181819045564807 C 6.8306154600285245 -0.33178648998818305 6.846137377074058 -0.3491947511191109 6.838322523005994 -0.3689474684704578 C 6.8005956412981 -0.4825862257291623 6.883594781055466 -0.5667441197104128 6.880010727293216 -0.621987053639828 C 6.866186519924538 -0.6925093746609399 6.842283845585323 -0.7216938124392602 6.8520119915114295 -0.8038575712445222 L 6.8524431558738055 -0.8063906618734806 L 6.8524431558738055 -0.8063906618734806 C 6.856997329451401 -0.871927644954621 6.771006986930053 -0.8506119567896613 6.747023469272892 -0.871604271682839 C 6.71034755069829 -0.9069866971703133 6.82819016049016 -0.9591575850178 6.819297395516156 -0.9887462393858477 C 6.8062007780089875 -1.008067792374819 6.773486182013714 -1.0150203177181305 6.754919166658901 -1.0099541364602134 C 6.724441235793454 -1.000576311578537 6.683938733502765 -0.9614481456929221 6.635351899417528 -0.9941627416881953 C 6.658904252712313 -0.9858897754851073 6.689058810305979 -0.9893121426114662 6.700942778043966 -1.0006302071238342 C 6.67202781799213 -0.9895007770200056 6.62279423736333 -0.9928153530557706 6.6019636091060425 -1.0285480995876752 C 6.630636039204042 -1.0164754974411494 6.655993893266276 -1.0187121625709745 6.679680985424302 -1.0260419567313652 C 6.660494171298574 -1.0254491057330983 6.63047435256815 -1.0233471794665157 6.619722191281401 -1.032886690984083 C 6.663215896336072 -1.041644717094844 6.672297295718615 -1.0622597631709427 6.703637555308815 -1.0610201656291118 C 6.735759300305822 -1.057436111866862 6.758368481557909 -1.0307308691722032 6.788172718107145 -1.0222962163332243 C 6.806793629007255 -1.0169066618035254 6.826923615175681 -1.0136729290857058 6.839373486139285 -0.996264667954778 C 6.861632346346942 -0.9618523622826496 6.7603626167338975 -0.9163914698246381 6.773297547605175 -0.8902790781282462 C 6.775992324870025 -0.8835421349661224 6.806712785689309 -0.8728708169973184 6.843361756491263 -0.8784220581629084 C 6.888768753403977 -0.8852398446429777 6.9405893202070335 -0.9335302532290811 6.997988075948328 -0.9511810443138454 C 7.114860565924852 -0.9872102163448836 7.215133227949902 -0.9408061518441748 7.314866934521984 -0.9785330335520681 C 7.538533447504494 -1.0630681963503976 7.6858299728011685 -1.181827030412316 7.914374032633057 -1.0175534083470892 C 7.7918964059456455 -1.042803471318729 7.7591548621777235 -0.9551423668931742 7.797393751565939 -0.9016779859585597 C 7.7936210633951495 -0.9861323054389438 7.858053187797702 -1.0034597232519262 7.928252135547032 -0.9874257985260715 C 8.004002324461952 -0.9700983807130891 8.050487232280606 -0.8973932901074491 8.142028815967544 -0.9712571349369744 C 8.126479951149364 -0.8791496480244178 8.036177965004255 -0.8622533945738112 7.949783405893179 -0.9022438891841782 Z" fill="url(#gradient-455dc4fd-797f-4813-91f2-de8fb9086794_0)" transform="matrix(1,0,0,1,0,0)" fill-rule="evenodd"></path></g><g clip-path="url(#SvgjsClipPath412005b396258-64d5-432f-946b-f6ff0af23960)"><path d=" M 7.339604989813302 -0.3439399354526541 C 7.687042622570351 -0.3439399354526541 7.989720004958249 -0.30605136710886993 8.148038169268158 -0.2499999999999999 C 7.921326557976369 -0.2827954393132186 7.641905103384121 -0.302143940074838 7.339604989813302 -0.302143940074838 C 7.037304876242483 -0.302143940074838 6.757910369422884 -0.2827954393132186 6.531171810358446 -0.2499999999999999 C 6.689463026895707 -0.30605136710886993 6.992140409283605 -0.3439399354526541 7.339604989813302 -0.3439399354526541 Z" fill="url(#gradient-455dc4fd-797f-4813-91f2-de8fb9086794_1)" transform="matrix(1,0,0,1,0,0)" fill-rule="evenodd"></path></g></g><g><path d=" M 2.569624536340245 0.05221298041910494 L 2.569624536340245 0.12307345384503332 Q 2.450280581096576 0.1491799440545858 2.3141538821467664 0.22749941468324364 Q 2.1780271831969564 0.30581888531190105 2.0288472391423706 0.48110531957603975 L 1.327701502085816 1.3165130062817216 L 1.5440124209649657 1.0069646223684556 L 2.431633088089753 2.3906086034747416 Q 2.483846068508858 2.4763870713061285 2.5435180461306923 2.5286000517252334 Q 2.6031900237525267 2.5808130321443388 2.7001569873880076 2.618108018157985 L 2.7001569873880076 2.692697990185278 Q 2.569624536340245 2.6852389929825486 2.409256096481565 2.6833742436818664 Q 2.248887656622885 2.681509494381184 2.118355205575122 2.681509494381184 Q 2.0400357349464646 2.681509494381184 1.9281507769055248 2.6833742436818664 Q 1.8162658188645853 2.6852389929825486 1.6447088832018113 2.692697990185278 L 1.6447088832018113 2.618108018157985 Q 1.797618325857762 2.6106490209552558 1.8293190639693615 2.5752187842422916 Q 1.8610198020809612 2.5397885475293274 1.8013478244591268 2.4502805810965755 L 1.2605705272612522 1.5738484097758827 Q 1.208357546842147 1.4880699419444956 1.1673330622271358 1.4451807080288022 Q 1.1263085776121249 1.4022914741131087 1.0852840929971137 1.3855087304069678 Q 1.0442596083821025 1.3687259867008268 0.9771286335575388 1.364996488099462 L 0.9771286335575388 1.2866770174708044 Q 1.1412265720175834 1.28294751886944 1.269894273764664 1.1971690510380528 Q 1.3985619755117444 1.111390583206666 1.551471418167695 0.9361041489425272 L 1.7715118356482096 0.6713097482456369 Q 1.9132327825000663 0.5034823111842277 1.9374745234089366 0.38227360663987664 Q 1.9617162643178068 0.26106490209552513 1.8889910415911961 0.1939339272709617 Q 1.8162658188645853 0.12680295244639783 1.6670858748099993 0.12307345384503332 L 1.6670858748099993 0.05221298041910494 Q 1.8050773230604913 0.05594247902046945 1.930015526206207 0.05967197762183396 Q 2.054953729351923 0.06340147622319892 2.219051667811968 0.06340147622319892 Q 2.4353625866911175 0.06340147622319892 2.569624536340245 0.05221298041910494 M 1.2792180202680754 0.05221298041910494 L 1.2792180202680754 0.12680295244639783 Q 1.1598740650244066 0.13053245104776234 1.09833733810189 0.15477419195663256 Q 1.036800611179373 0.17901593286550277 1.0181531181725498 0.24428215838938439 Q 0.9995056251657266 0.30954838391326556 0.9995056251657266 0.4475398321637578 L 0.9995056251657266 2.2973711384406252 Q 0.9995056251657266 2.4316330880897525 1.0200178674732323 2.4987640629143164 Q 1.0405301097807378 2.56589503773888 1.1002020874025722 2.588272029347068 Q 1.1598740650244066 2.6106490209552558 1.2792180202680754 2.618108018157985 L 1.2792180202680754 2.692697990185278 Q 1.1785215580312298 2.6852389929825486 1.025612115375279 2.6833742436818664 Q 0.8727026727193284 2.681509494381184 0.7160637314620131 2.681509494381184 Q 0.5370477985965099 2.681509494381184 0.37854410803851213 2.6833742436818664 Q 0.22004041748051445 2.6852389929825486 0.12680295244639816 2.692697990185278 L 0.12680295244639816 2.618108018157985 Q 0.246146907690067 2.6106490209552558 0.30581888531190143 2.588272029347068 Q 0.36549086293373584 2.56589503773888 0.38600310524124143 2.4987640629143164 Q 0.406515347548747 2.4316330880897525 0.406515347548747 2.2973711384406252 L 0.406515347548747 0.4475398321637578 Q 0.406515347548747 0.30954838391326556 0.38600310524124143 0.24428215838938439 Q 0.36549086293373584 0.17901593286550277 0.3039541360112191 0.15477419195663256 Q 0.24241740908870235 0.13053245104776234 0.12680295244639816 0.12680295244639783 L 0.12680295244639816 0.05221298041910494 Q 0.22004041748051445 0.05594247902046945 0.37854410803851213 0.05967197762183396 Q 0.5370477985965099 0.06340147622319892 0.7160637314620131 0.06340147622319892 Q 0.8727026727193284 0.06340147622319892 1.025612115375279 0.05967197762183396 Q 1.1785215580312298 0.05594247902046945 1.2792180202680754 0.05221298041910494 M 4.035277423703295 0.04475398321637547 L 4.941545583834906 2.379420107670647 Q 4.993758564254011 2.513682057319775 5.059024789777893 2.5640302884381976 Q 5.1242910153017736 2.6143785195566203 5.176503995720879 2.618108018157985 L 5.176503995720879 2.692697990185278 Q 5.06461903767994 2.6852389929825486 4.913574344324671 2.6833742436818664 Q 4.7625296509694035 2.681509494381184 4.609620208313452 2.681509494381184 Q 4.438063272650679 2.681509494381184 4.285153829994727 2.6833742436818664 Q 4.132244387338777 2.6852389929825486 4.042736420906025 2.692697990185278 L 4.042736420906025 2.618108018157985 Q 4.232940849575622 2.6106490209552558 4.283289080694045 2.5528417926341036 Q 4.333637311812468 2.4950345643129515 4.259047339785175 2.3048301356433543 L 3.625032577553184 0.5706132860087916 L 3.692163552377748 0.4736463223733103 L 3.125279764970321 1.9505277685137123 Q 3.0208538041321105 2.226510665014697 3.022718553432793 2.3682316118665536 Q 3.0245833027334754 2.5099525587184104 3.114091269166227 2.560300789836833 Q 3.2035992355989786 2.6106490209552558 3.3527791796535644 2.618108018157985 L 3.3527791796535644 2.692697990185278 Q 3.229705725808531 2.6852389929825486 3.1178207677675918 2.6833742436818664 Q 3.005935809726652 2.681509494381184 2.8903213530843477 2.681509494381184 Q 2.8082723838543253 2.681509494381184 2.7355471611277147 2.6833742436818664 Q 2.662821938401104 2.6852389929825486 2.606879459380634 2.692697990185278 L 2.606879459380634 2.618108018157985 Q 2.685198930009292 2.6031900237525263 2.7672478992393144 2.5174115559211394 Q 2.8492968684693367 2.4316330880897525 2.927616339097994 2.226510665014697 L 3.777942020209135 0.04475398321637547 Q 3.837613997830969 0.04848348181773998 3.9066097219562153 0.04848348181773998 Q 3.9756054460814614 0.04848348181773998 4.035277423703295 0.04475398321637547 M 4.296342325798822 1.6186023929922584 L 4.296342325798822 1.6931923650195515 L 3.184951742592155 1.6931923650195515 L 3.2222467286058016 1.6186023929922584 L 4.296342325798822 1.6186023929922584 M 6.354923575274728 0.05221298041910494 L 6.354923575274728 0.12680295244639783 Q 6.235579620031059 0.13053245104776234 6.174042893108542 0.15477419195663256 Q 6.112506166186026 0.17901593286550277 6.093858673179202 0.24428215838938439 Q 6.075211180172379 0.30954838391326556 6.075211180172379 0.4475398321637578 L 6.075211180172379 2.2973711384406252 Q 6.075211180172379 2.4316330880897525 6.095723422479884 2.4987640629143164 Q 6.11623566478739 2.56589503773888 6.175907642409225 2.588272029347068 Q 6.235579620031059 2.6106490209552558 6.354923575274728 2.618108018157985 L 6.354923575274728 2.692697990185278 Q 6.254227113037882 2.6852389929825486 6.101317670381931 2.6833742436818664 Q 5.948408227725981 2.681509494381184 5.791769286468665 2.681509494381184 Q 5.609023855001798 2.681509494381184 5.4542496630451645 2.6833742436818664 Q 5.299475471088531 2.6852389929825486 5.20250850745305 2.692697990185278 L 5.20250850745305 2.618108018157985 Q 5.321852462696719 2.6106490209552558 5.381524440318554 2.588272029347068 Q 5.441196417940388 2.56589503773888 5.4617086602478935 2.4987640629143164 Q 5.482220902555399 2.4316330880897525 5.482220902555399 2.2973711384406252 L 5.482220902555399 0.4475398321637578 Q 5.482220902555399 0.30954838391326556 5.4617086602478935 0.24428215838938439 Q 5.441196417940388 0.17901593286550277 5.379659691017872 0.15477419195663256 Q 5.3181229640953545 0.13053245104776234 5.20250850745305 0.12680295244639783 L 5.20250850745305 0.05221298041910494 Q 5.299475471088531 0.05594247902046945 5.4542496630451645 0.05967197762183396 Q 5.609023855001798 0.06340147622319892 5.791769286468665 0.06340147622319892 Q 5.948408227725981 0.06340147622319892 6.101317670381931 0.05967197762183396 Q 6.254227113037882 0.05594247902046945 6.354923575274728 0.05221298041910494 M 6.60471257144269 0.05221298041910494 Q 6.697950036476806 0.05594247902046945 6.856453727034804 0.05967197762183396 Q 7.014957417592802 0.06340147622319892 7.171596358850117 0.06340147622319892 Q 7.3506122917156205 0.06340147622319892 7.51843972877703 0.05967197762183396 Q 7.686267165838439 0.05594247902046945 7.757127639264367 0.05594247902046945 Q 8.275527944854055 0.05594247902046945 8.532863348348215 0.22563466538256094 Q 8.790198751842375 0.3953268517446529 8.790198751842375 0.7048752356579189 Q 8.790198751842375 0.8316781881043169 8.73798577142327 0.9603458898513975 Q 8.685772791004165 1.089013591598478 8.56083458785845 1.199033800338735 Q 8.435896384712734 1.3090540090789924 8.219585465833584 1.3743202346028738 Q 8.003274546954435 1.4395864601267552 7.675078670034345 1.4395864601267552 L 7.317046804303338 1.4395864601267552 L 7.317046804303338 1.364996488099462 L 7.6377836840206985 1.364996488099462 Q 7.857824101501213 1.364996488099462 7.971573808842835 1.2810827695687574 Q 8.085323516184456 1.1971690510380528 8.12821275010015 1.0573128534868783 Q 8.171101984015843 0.917456655935704 8.171101984015843 0.7458997202729301 Q 8.171101984015843 0.4512693307651223 8.066676023177633 0.2890361416057603 Q 7.9622500623394235 0.12680295244639783 7.708644157446627 0.12680295244639783 Q 7.563193711993406 0.12680295244639783 7.520304478077712 0.19020442866959675 Q 7.477415244162018 0.2536059048927961 7.477415244162018 0.4475398321637578 L 7.477415244162018 2.2973711384406252 Q 7.477415244162018 2.4316330880897525 7.497927486469524 2.4987640629143164 Q 7.51843972877703 2.56589503773888 7.5781117063988646 2.588272029347068 Q 7.6377836840206985 2.6106490209552558 7.757127639264367 2.618108018157985 L 7.757127639264367 2.692697990185278 Q 7.656431177027522 2.6852389929825486 7.503521734371571 2.6833742436818664 Q 7.3506122917156205 2.681509494381184 7.193973350458305 2.681509494381184 Q 7.014957417592802 2.681509494381184 6.856453727034804 2.6833742436818664 Q 6.697950036476806 2.6852389929825486 6.60471257144269 2.692697990185278 L 6.60471257144269 2.618108018157985 Q 6.724056526686359 2.6106490209552558 6.783728504308193 2.588272029347068 Q 6.843400481930027 2.56589503773888 6.863912724237533 2.4987640629143164 Q 6.884424966545039 2.4316330880897525 6.884424966545039 2.2973711384406252 L 6.884424966545039 0.4475398321637578 Q 6.884424966545039 0.30954838391326556 6.863912724237533 0.24428215838938439 Q 6.843400481930027 0.17901593286550277 6.781863755007511 0.15477419195663256 Q 6.720327028084994 0.13053245104776234 6.60471257144269 0.12680295244639783 L 6.60471257144269 0.05221298041910494 M 7.309587807100609 1.376184983903556 Q 7.469956246959289 1.3799144825049208 7.587435452902276 1.3911029783090147 Q 7.704914658845262 1.4022914741131087 7.794422625278014 1.4116152206165202 Q 7.883930591710765 1.420938967119932 7.954791065136694 1.4246684657212967 Q 8.294175437860877 1.4545044545322139 8.45640862702024 1.570118911174518 Q 8.618641816179602 1.6857333678168223 8.667125297997343 1.9169622811014306 L 8.75290376582873 2.3011006370419897 Q 8.78646925324101 2.4502805810965755 8.823764239254658 2.5099525587184104 Q 8.861059225268304 2.569624536340245 8.931919698694234 2.569624536340245 Q 8.980403180511974 2.56589503773888 9.012103918623573 2.5453827954313746 Q 9.043804656735173 2.524870553123869 9.081099642748818 2.4838460685088575 L 9.133312623167924 2.5286000517252334 Q 9.032616160931077 2.6442145083675377 8.917001704288774 2.6945627394859604 Q 8.80138724764647 2.744910970604383 8.637289309186425 2.744910970604383 Q 8.435896384712734 2.744910970604383 8.305363933664971 2.659132502772996 Q 8.174831482617208 2.5733540349416093 8.133806998002196 2.3421251216570007 L 8.066676023177633 1.9691752615205358 Q 8.040569532968082 1.8125363202632203 8.003274546954435 1.6950571143202338 Q 7.965979560940788 1.5775779083772472 7.900713335416906 1.5085821842520013 Q 7.835447109893025 1.4395864601267552 7.719832653250721 1.4395864601267552 L 7.317046804303338 1.4395864601267552 L 7.309587807100609 1.376184983903556 M 10.539395511386521 -4.440892098500626e-16 Q 10.934722363131176 -4.440892098500626e-16 11.231217501939664 0.16036843985867977 Q 11.527712640748154 0.32073687971735954 11.6918105792082 0.6209615171272143 Q 11.855908517668244 0.9211861545370685 11.855908517668244 1.3500784936940036 Q 11.855908517668244 1.7677823370468446 11.688081080606835 2.081060219561475 Q 11.520253643545425 2.394338102076106 11.22002900613557 2.569624536340245 Q 10.919804368725716 2.744910970604383 10.535666012785157 2.744910970604383 Q 10.140339161040504 2.744910970604383 9.843844022232014 2.5845425307457033 Q 9.547348883423524 2.424174090887023 9.38325094496348 2.1220847041764865 Q 9.219153006503435 1.8199953174659496 9.219153006503435 1.3948324769103793 Q 9.219153006503435 0.9771286335575384 9.388845192865526 0.6638507510429075 Q 9.55853737922762 0.35057286852827696 9.855032518036108 0.17528643426413826 Q 10.151527656844598 -4.440892098500626e-16 10.539395511386521 -4.440892098500626e-16 M 10.524477516981063 0.06713097482456343 Q 10.315625595304644 0.06713097482456343 10.16085140334801 0.23495841188597266 Q 10.006077211391377 0.4027858489473819 9.922163492860673 0.6974162384551894 Q 9.838249774329967 0.9920466279629969 9.838249774329967 1.3799144825049208 Q 9.838249774329967 1.7752413342495739 9.933351988664766 2.068006974456699 Q 10.028454202999566 2.360772614663824 10.190687392158926 2.5192763052218217 Q 10.352920581318289 2.6777799957798196 10.550584007190615 2.6777799957798196 Q 10.759435928867036 2.6777799957798196 10.91421012082367 2.5099525587184104 Q 11.068984312780302 2.3421251216570007 11.152898031311008 2.045629982848511 Q 11.236811749841712 1.7491348440400212 11.236811749841712 1.364996488099462 Q 11.236811749841712 0.9659401377534444 11.141709535506912 0.6750392468470015 Q 11.046607321172115 0.3841383559405589 10.884374132012752 0.22563466538256094 Q 10.72214094285339 0.06713097482456343 10.524477516981063 0.06713097482456343 M 14.571110972558436 0.05221298041910494 L 14.571110972558436 0.12680295244639783 Q 14.451767017314767 0.14172094685185632 14.392095039692933 0.1883396793689145 Q 14.332423062071097 0.23495841188597266 14.311910819763593 0.33565487412281847 Q 14.291398577456087 0.43635133635966383 14.291398577456087 0.619096767826532 L 14.291398577456087 2.7001569873880076 Q 14.246644594239712 2.6964274887866426 14.200025861722652 2.6964274887866426 Q 14.153407129205595 2.6964274887866426 14.10119414878649 2.7001569873880076 L 12.482591755794232 0.648932756637449 L 12.482591755794232 2.081060219561475 Q 12.482591755794232 2.2861826426365313 12.504968747402419 2.3962028513767883 Q 12.527345739010606 2.5062230601170454 12.603800460338583 2.5528417926341036 Q 12.680255181666558 2.5994605251511618 12.844353120126602 2.618108018157985 L 12.844353120126602 2.692697990185278 Q 12.773492646700674 2.6852389929825486 12.65787819005837 2.6833742436818664 Q 12.542263733416066 2.681509494381184 12.44156727117922 2.681509494381184 Q 12.355788803347833 2.681509494381184 12.266280836915081 2.6833742436818664 Q 12.17677287048233 2.6852389929825486 12.117100892860496 2.692697990185278 L 12.117100892860496 2.618108018157985 Q 12.236444848104163 2.5994605251511618 12.296116825726 2.554706541934786 Q 12.355788803347833 2.5099525587184104 12.376301045655339 2.4073913471808823 Q 12.396813287962845 2.3048301356433543 12.396813287962845 2.125814202777851 L 12.396813287962845 0.4475398321637578 Q 12.396813287962845 0.30954838391326556 12.376301045655339 0.24428215838938439 Q 12.355788803347833 0.17901593286550277 12.294252076425316 0.15477419195663256 Q 12.232715349502799 0.13053245104776234 12.117100892860496 0.12680295244639783 L 12.117100892860496 0.05221298041910494 Q 12.17677287048233 0.05594247902046945 12.266280836915081 0.05967197762183396 Q 12.355788803347833 0.06340147622319892 12.44156727117922 0.06340147622319892 Q 12.531075237611972 0.06340147622319892 12.613124206841993 0.05967197762183396 Q 12.695173176072016 0.05594247902046945 12.762304150896579 0.05221298041910494 L 14.2056201096247 1.8311838132700435 L 14.2056201096247 0.6638507510429075 Q 14.2056201096247 0.4587283279678518 14.183243118016513 0.3487081192275947 Q 14.160866126408324 0.23868791048733717 14.084411405080349 0.19020442866959675 Q 14.007956683752374 0.14172094685185632 13.843858745292328 0.12680295244639783 L 13.843858745292328 0.05221298041910494 Q 13.914719218718258 0.05594247902046945 14.030333675360561 0.05967197762183396 Q 14.145948132002866 0.06340147622319892 14.246644594239712 0.06340147622319892 Q 14.336152560672463 0.06340147622319892 14.423795777804532 0.05967197762183396 Q 14.5114389949366 0.05594247902046945 14.571110972558436 0.05221298041910494" fill="#262626" fill-rule="nonzero"></path></g><g></g></g><defs><clipPath id="SvgjsClipPath41202"><path d=" M 6.531171810358446 -1.099739305275195 h 1.616866358909713 v 0.849739305275195 h -1.616866358909713 Z"></path></clipPath><clipPath id="SvgjsClipPath412005b396258-64d5-432f-946b-f6ff0af23960"><path d=" M 6.531171810358446 -1.099739305275195 L 8.148038169268158 -1.099739305275195 L 8.148038169268158 -0.2499999999999999 L 6.531171810358446 -0.2499999999999999 Z"></path></clipPath><linearGradient id="gradient-455dc4fd-797f-4813-91f2-de8fb9086794_0" x1="0" x2="1" y1="0" y2="1"><stop stop-color="#e4a640" offset="0"></stop><stop stop-color="#2d2b27" offset="1"></stop></linearGradient><linearGradient id="gradient-455dc4fd-797f-4813-91f2-de8fb9086794_1" x1="0" x2="1" y1="0" y2="1"><stop stop-color="#926f35" offset="0"></stop><stop stop-color="#262626" offset="1"></stop></linearGradient></defs></svg>